<svg xmlns="http://www.w3.org/2000/svg" xmlns:xlink="http://www.w3.org/1999/xlink" viewBox="0 0 18 18"><defs><style>.cls-1{fill:none;}.cls-2{fill:#f26531;}.cls-3{fill:#fff;}.cls-4{clip-path:url(#clip-path);}.cls-5{fill:url(#linear-gradient);}</style><clipPath id="clip-path"><path class="cls-1" d="M2.9,5.82,8.62,9A.78.78,0,0,0,9.4,9l.52-.28L15.1,5.82v6.71H2.9Z"/></clipPath><linearGradient id="linear-gradient" x1="3.22" y1="10" x2="14.78" y2="10" gradientUnits="userSpaceOnUse"><stop offset="0" stop-color="#e25f2e"/><stop offset="1" stop-color="#f26531"/></linearGradient></defs><g id="Layer_2" data-name="Layer 2"><g id="Layout"><circle class="cls-2" cx="9" cy="9" r="9"/><path class="cls-3" d="M14.84,12.9H3.16a.39.39,0,0,1-.39-.39v-7a.39.39,0,0,1,.39-.39H14.84a.39.39,0,0,1,.39.39v7A.39.39,0,0,1,14.84,12.9ZM9.37,8.71,14.65,5.8a.13.13,0,0,0-.06-.24H3.41a.13.13,0,0,0-.06.24l5.3,2.91A.71.71,0,0,0,9.37,8.71Z"/><g class="cls-4"><path class="cls-5" d="M3.35,12.13a.12.12,0,0,1-.1-.05.13.13,0,0,1,0-.18L9,7.86l5.73,4a.14.14,0,0,1,0,.19.14.14,0,0,1-.18,0L9,8.18,3.43,12.11Z"/></g></g></g></svg>