<svg xmlns="http://www.w3.org/2000/svg" viewBox="0 0 18 18"><defs><style>.cls-1{fill:#f26531;}.cls-2{fill:#fff;}</style></defs><g id="Layer_2" data-name="Layer 2"><g id="Layout"><circle class="cls-1" cx="9" cy="9" r="9"/><path class="cls-2" d="M13.1,10.25h0a1.16,1.16,0,0,0-1.72,0l-.93.93-.22-.11a2.21,2.21,0,0,1-.34-.18A9.65,9.65,0,0,1,7.59,8.8,5.85,5.85,0,0,1,6.8,7.54c.31-.31.61-.62.92-.91a1.15,1.15,0,0,0,0-1.74c-.25-.25-.49-.5-.74-.74L6.73,3.9l-.52-.51a1.13,1.13,0,0,0-1.71,0l-.36.36-.57.57A1.75,1.75,0,0,0,3,5.53a4.73,4.73,0,0,0,.35,2A11.9,11.9,0,0,0,5.43,11,12.83,12.83,0,0,0,9.68,14.3a6.16,6.16,0,0,0,2.41.7h.16a1.92,1.92,0,0,0,1.5-.64c.18-.2.38-.39.57-.57a3.7,3.7,0,0,0,.28-.28,1.15,1.15,0,0,0,0-1.74Z"/></g></g></svg>