<svg xmlns="http://www.w3.org/2000/svg" viewBox="0 0 18 18"><defs><style>.cls-1{fill:#f26531;}.cls-2{fill:#fff;}</style></defs><g id="Layer_2" data-name="Layer 2"><g id="Layout"><circle class="cls-1" cx="9" cy="9" r="9"/><path class="cls-2" d="M8.89,15.72a.81.81,0,0,1-.32-.29c-1.25-1.77-2.51-3.53-3.75-5.3A4.78,4.78,0,0,1,4,7.83,5,5,0,0,1,6.92,2.76a4.84,4.84,0,0,1,5.33.75A4.76,4.76,0,0,1,14,6.73a4.94,4.94,0,0,1-.92,3.55L9.45,15.4a.78.78,0,0,1-.35.32ZM11.8,7.41A2.8,2.8,0,1,0,9,10.19,2.8,2.8,0,0,0,11.8,7.41Z"/></g></g></svg>