<svg xmlns="http://www.w3.org/2000/svg" viewBox="0 0 17.13 18.5"><defs><style>.cls-1{fill:#f06432;}</style></defs><g id="Layer_2" data-name="Layer 2"><g id="Layout"><circle class="cls-1" cx="8.63" cy="4.5" r="4.5"/><path class="cls-1" d="M11.13,13.5A3.43,3.43,0,0,1,12.23,11a16.55,16.55,0,0,0-3.6-.47c-2.56,0-7.29,1.07-8.63,3a10,10,0,0,0,8.63,5A9.9,9.9,0,0,0,14,16.93,3.49,3.49,0,0,1,11.13,13.5Z"/><path class="cls-1" d="M17.13,13.5a2.5,2.5,0,1,0-2.5,2.5A2.5,2.5,0,0,0,17.13,13.5Zm-3,1.5V14h-1V13h1V12h1v1h1v1h-1v1Z"/></g></g></svg>
