<svg xmlns="http://www.w3.org/2000/svg" viewBox="0 0 160 35.53"><defs><style>.cls-1{fill:#f06432;}.cls-2{fill:#686868;}</style></defs><g id="Layer_2" data-name="Layer 2"><g id="Graphic"><path class="cls-1" d="M0,28.05V.17H10c5.06,0,9.19,1.46,9.19,7.19v3.18c0,4.89-2.8,6.52-6.47,7.14-.88.17-1.67.17-6.65.17v10.2ZM6.1,13.34H9.91c1.63,0,3.13-.34,3.13-2.8V7.4c0-2.55-1.55-2.88-3.13-2.88H6.1Z"/><path class="cls-1" d="M28,7.23V22.32c0,2.38,3.13,1.09,4.3.42V7.23h6.1V28.05H33.24l-.53-1.8a8.28,8.28,0,0,1-5.06,2.26c-2.88,0-5.77-1.47-5.77-5.35V7.23Z"/><path class="cls-1" d="M49.08,28.17a9.52,9.52,0,0,1-2.59.34c-3.14,0-5.43-1.21-5.43-6.31V.17h6.1V22.51c0,1,0,1.79,1.92,2.13Z"/><path class="cls-1" d="M66.21,22.44c0,4.17-3,6.07-6.85,6.07A63,63,0,0,1,51.71,28V23.58a57.9,57.9,0,0,0,6.56.5c1,0,1.8-.17,1.8-1.18,0-2.57-9.36-3.07-9.36-9.86,0-4.21,2.88-6.26,6.81-6.26a50.68,50.68,0,0,1,7.69.7V11.9s-4.47-.5-7.52-.5c-.59,0-.92.38-.92,1.14C56.77,14.35,66.21,15.65,66.21,22.44Z"/><path class="cls-1" d="M84.61,19.36H73.91C74,24,75,24.24,77.3,24.24c.91,0,3.25-.16,6.31-.46v3.81a42.11,42.11,0,0,1-8,.92c-6.6,0-7.73-2.68-7.73-10.87,0-8.4,1-10.86,8.4-10.86,6.86,0,8.28,2.42,8.28,10.82ZM74,15h4.93c-.12-3.68-.63-4-2.55-4S74.12,12.05,74,15Z"/><path class="cls-2" d="M115.37,35.53H109l2.2-7.48h-1L104.44,7.23h6.27L113.58,20l3.76-12.77h6.36Z"/><path class="cls-2" d="M135.52,28.05V13c0-2.38-3.14-1.09-4.26-.42V28.05h-6.11V7.23h5.12L130.8,9a8.22,8.22,0,0,1,5-2.25c2.93,0,5.73,1.46,5.73,5.34V28.05Z"/><path class="cls-2" d="M153.82,24c1.46,0,4.3-.21,6.18-.38v3.77a37.51,37.51,0,0,1-7.65,1c-5.68,0-8.19-1-8.19-9.82,0-9,.79-11.87,7.57-11.87a77.49,77.49,0,0,1,8.06.79v4.14c-3.8-.29-6.52-.5-7-.5-2.46,0-2.42,1.34-2.42,7.57C150.39,23.37,151.43,24,153.82,24Z"/><path class="cls-2" d="M94.29,4.5c2.93,0,8.75.29,8.75.29V.37C100.81.21,98.75,0,94,0s-8.14,2.31-8.1,7.68c0,3.07,3.21,5.73,3.49,6l-1.9.77,9,0,1.6-4.25-1.58.64-1.48-.9h0c-1.67-1-2.9-2.18-2.9-3.28C92.18,5,93,4.5,94.29,4.5Z"/><path class="cls-2" d="M105.19,15H97l-1.78,5.3,2-1.07c1.72,2,.9,4.71-1.4,4.71-3.22,0-8.47-.29-8.47-.29v4.38c3.38.2,5.74.46,9,.46,4.59,0,8.18-2.2,8.18-7.53A9.93,9.93,0,0,0,103,16.16Z"/></g></g></svg>